<?xml version="1.0" encoding="UTF-8" standalone="no"?>
<!DOCTYPE svg PUBLIC "-//W3C//DTD SVG 1.1//EN"
 "http://www.w3.org/Graphics/SVG/1.1/DTD/svg11.dtd">
<!-- Generated by graphviz version 2.40.1 (20161225.0304)
 -->
<!-- Title: dependencies Pages: 1 -->
<svg width="504pt" height="287pt"
 viewBox="0.00 0.00 504.00 287.00" xmlns="http://www.w3.org/2000/svg" xmlns:xlink="http://www.w3.org/1999/xlink">
<g id="graph0" class="graph" transform="scale(1 1) rotate(0) translate(4 283)">
<title>dependencies</title>
<polygon fill="#ffffff" stroke="transparent" points="-4,4 -4,-283 500,-283 500,4 -4,4"/>
<text text-anchor="start" x="227.0091" y="-42.4" font-family="sans-serif" font-weight="bold" font-size="14.00" fill="#000000">Legend</text>
<polygon fill="#ffffb3" stroke="transparent" points="14,-10 14,-30 34,-30 34,-10 14,-10"/>
<text text-anchor="start" x="37.629" y="-15.4" font-family="sans-serif" font-size="14.00" fill="#000000"> &#160;Declarations</text>
<polygon fill="#8dd3c7" stroke="transparent" points="127,-10 127,-30 147,-30 147,-10 127,-10"/>
<text text-anchor="start" x="150.7251" y="-15.4" font-family="sans-serif" font-size="14.00" fill="#000000"> &#160;Module</text>
<polygon fill="#80b1d3" stroke="transparent" points="213,-10 213,-30 233,-30 233,-10 213,-10"/>
<text text-anchor="start" x="236.7812" y="-15.4" font-family="sans-serif" font-size="14.00" fill="#000000"> &#160;Bootstrap</text>
<polygon fill="#fdb462" stroke="transparent" points="310,-10 310,-30 330,-30 330,-10 310,-10"/>
<text text-anchor="start" x="333.6732" y="-15.4" font-family="sans-serif" font-size="14.00" fill="#000000"> &#160;Providers</text>
<polygon fill="#fb8072" stroke="transparent" points="406,-10 406,-30 426,-30 426,-10 406,-10"/>
<text text-anchor="start" x="429.7258" y="-15.4" font-family="sans-serif" font-size="14.00" fill="#000000"> &#160;Exports</text>
<g id="clust1" class="cluster">
<title>cluster_AppModule</title>
<polygon fill="none" stroke="#000000" stroke-dasharray="1,5" points="34,-70 34,-263 322,-263 322,-70 34,-70"/>
</g>
<g id="clust3" class="cluster">
<title>cluster_AppModule_imports</title>
<polygon fill="none" stroke="#000000" points="90,-143 90,-195 314,-195 314,-143 90,-143"/>
</g>
<g id="clust6" class="cluster">
<title>cluster_AppModule_providers</title>
<polygon fill="none" stroke="#000000" points="42,-78 42,-130 314,-130 314,-78 42,-78"/>
</g>
<g id="clust7" class="cluster">
<title>cluster_ConfigModule</title>
<polygon fill="none" stroke="#000000" stroke-dasharray="1,5" points="330,-203 330,-271 462,-271 462,-203 330,-203"/>
</g>
<g id="clust10" class="cluster">
<title>cluster_ConfigModule_exports</title>
<polygon fill="none" stroke="#000000" points="338,-211 338,-263 454,-263 454,-211 338,-211"/>
</g>
<!-- ConfigModule -->
<g id="node1" class="node">
<title>ConfigModule</title>
<polygon fill="#8dd3c7" stroke="#000000" points="306.4386,-187 303.4386,-191 282.4386,-191 279.4386,-187 207.5614,-187 207.5614,-151 306.4386,-151 306.4386,-187"/>
<text text-anchor="middle" x="257" y="-164.8" font-family="Times,serif" font-size="14.00" fill="#000000">ConfigModule</text>
</g>
<!-- AppModule -->
<g id="node3" class="node">
<title>AppModule</title>
<polygon fill="#8dd3c7" stroke="#000000" points="155.6571,-255 152.6571,-259 131.6571,-259 128.6571,-255 72.3429,-255 72.3429,-219 155.6571,-219 155.6571,-255"/>
<text text-anchor="middle" x="114" y="-232.8" font-family="Times,serif" font-size="14.00" fill="#000000">AppModule</text>
</g>
<!-- ConfigModule&#45;&gt;AppModule -->
<g id="edge1" class="edge">
<title>ConfigModule&#45;&gt;AppModule</title>
<path fill="none" stroke="#000000" d="M240.5937,-187.2228C240.5937,-207.3652 240.5937,-237 240.5937,-237 240.5937,-237 165.8024,-237 165.8024,-237"/>
<polygon fill="#000000" stroke="#000000" points="165.8024,-233.5001 155.8024,-237 165.8023,-240.5001 165.8024,-233.5001"/>
</g>
<!-- ConfigService  -->
<g id="node6" class="node">
<title>ConfigService </title>
<polygon fill="#fb8072" stroke="#000000" points="446.3661,-255 345.6339,-255 345.6339,-219 446.3661,-219 446.3661,-255"/>
<text text-anchor="middle" x="396" y="-232.8" font-family="Times,serif" font-size="14.00" fill="#000000">ConfigService </text>
</g>
<!-- ConfigModule&#45;&gt;ConfigService  -->
<g id="edge5" class="edge">
<title>ConfigModule&#45;&gt;ConfigService </title>
<path fill="none" stroke="#000000" stroke-dasharray="5,2" d="M273.4063,-187.2479C273.4063,-210.0179 273.4063,-246 273.4063,-246 273.4063,-246 335.7827,-246 335.7827,-246"/>
<polygon fill="#000000" stroke="#000000" points="335.7827,-249.5001 345.7827,-246 335.7827,-242.5001 335.7827,-249.5001"/>
</g>
<!-- UsersModule -->
<g id="node2" class="node">
<title>UsersModule</title>
<polygon fill="#8dd3c7" stroke="#000000" points="189.9218,-187 186.9218,-191 165.9218,-191 162.9218,-187 98.0782,-187 98.0782,-151 189.9218,-151 189.9218,-187"/>
<text text-anchor="middle" x="144" y="-164.8" font-family="Times,serif" font-size="14.00" fill="#000000">UsersModule</text>
</g>
<!-- UsersModule&#45;&gt;AppModule -->
<g id="edge2" class="edge">
<title>UsersModule&#45;&gt;AppModule</title>
<path fill="none" stroke="#000000" d="M127.0589,-187.2228C127.0589,-187.2228 127.0589,-208.7269 127.0589,-208.7269"/>
<polygon fill="#000000" stroke="#000000" points="123.559,-208.7269 127.0589,-218.7269 130.559,-208.727 123.559,-208.7269"/>
</g>
<!-- AppService -->
<g id="node4" class="node">
<title>AppService</title>
<ellipse fill="#fdb462" stroke="#000000" cx="107" cy="-104" rx="56.7406" ry="18"/>
<text text-anchor="middle" x="107" y="-99.8" font-family="Times,serif" font-size="14.00" fill="#000000">AppService</text>
</g>
<!-- AppService&#45;&gt;AppModule -->
<g id="edge3" class="edge">
<title>AppService&#45;&gt;AppModule</title>
<path fill="none" stroke="#000000" d="M85.2307,-120.8445C85.2307,-120.8445 85.2307,-208.5877 85.2307,-208.5877"/>
<polygon fill="#000000" stroke="#000000" points="81.7308,-208.5877 85.2307,-218.5877 88.7308,-208.5877 81.7308,-208.5877"/>
</g>
<!-- UsersService -->
<g id="node5" class="node">
<title>UsersService</title>
<ellipse fill="#fdb462" stroke="#000000" cx="244" cy="-104" rx="61.9519" ry="18"/>
<text text-anchor="middle" x="244" y="-99.8" font-family="Times,serif" font-size="14.00" fill="#000000">UsersService</text>
</g>
<!-- UsersService&#45;&gt;UsersModule -->
<g id="edge6" class="edge">
<title>UsersService&#45;&gt;UsersModule</title>
<path fill="none" stroke="#000000" d="M185.8672,-110.4701C185.8672,-110.4701 185.8672,-140.7831 185.8672,-140.7831"/>
<polygon fill="#000000" stroke="#000000" points="182.3673,-140.7831 185.8672,-150.7831 189.3673,-140.7831 182.3673,-140.7831"/>
</g>
<!-- UsersService&#45;&gt;AppModule -->
<g id="edge4" class="edge">
<title>UsersService&#45;&gt;AppModule</title>
<path fill="none" stroke="#000000" d="M198.7458,-116.3429C198.7458,-147.7073 198.7458,-228 198.7458,-228 198.7458,-228 165.8764,-228 165.8764,-228"/>
<polygon fill="#000000" stroke="#000000" points="165.8764,-224.5001 155.8764,-228 165.8763,-231.5001 165.8764,-224.5001"/>
</g>
</g>
</svg>
